<?xml version="1.0" encoding="UTF-8" standalone="no"?><svg xmlns="http://www.w3.org/2000/svg" xmlns:xlink="http://www.w3.org/1999/xlink" contentStyleType="text/css" height="526px" preserveAspectRatio="none" style="width:169px;height:526px;background:#FFFFFF;" version="1.1" viewBox="0 0 169 526" width="169px" zoomAndPan="magnify"><defs/><g><!--MD5=[ed6624c6556d5e7b1bd23032162d20b7]
class Client--><g id="elem_Client"><rect codeLine="2" fill="#F1F1F1" height="124.2717" id="Client" rx="2.5" ry="2.5" style="stroke:#181818;stroke-width:0.5;" width="98" x="10.5" y="7"/><ellipse cx="37.65" cy="23" fill="#ADD1B2" rx="11" ry="11" style="stroke:#181818;stroke-width:1.0;"/><path d="M34.0094,29.5 L34.0094,17.3594 L41.6656,17.3594 L41.6656,19.4844 L36.3844,19.4844 L36.3844,22.1406 L41.4,22.1406 L41.4,24.2656 L36.3844,24.2656 L36.3844,27.375 L41.6656,27.375 L41.6656,29.5 L34.0094,29.5 Z " fill="#000000"/><text fill="#000000" font-family="sans-serif" font-size="14" lengthAdjust="spacing" textLength="39" x="54.35" y="28.432">Client</text><line style="stroke:#181818;stroke-width:0.5;" x1="11.5" x2="107.5" y1="39" y2="39"/><ellipse cx="21.5" cy="54.034" fill="#000000" rx="3" ry="3" style="stroke:#000000;stroke-width:1.0;"/><text fill="#000000" font-family="sans-serif" font-size="14" lengthAdjust="spacing" textLength="13" x="30.5" y="57.9659">id</text><text fill="#000000" font-family="sans-serif" font-size="14" lengthAdjust="spacing" textLength="72" x="30.5" y="77.0339">homepage</text><text fill="#000000" font-family="sans-serif" font-size="14" lengthAdjust="spacing" textLength="67" x="30.5" y="96.1018">clientRate</text><text fill="#000000" font-family="sans-serif" font-size="14" lengthAdjust="spacing" textLength="67" x="30.5" y="115.1697">sellerRate</text><line style="stroke:#181818;stroke-width:0.5;" x1="11.5" x2="107.5" y1="123.2717" y2="123.2717"/></g><!--MD5=[c295e1c3388ec71a3041064b1ac10ed6]
class Preference--><g id="elem_Preference"><rect codeLine="9" fill="#F1F1F1" height="67.0679" id="Preference" rx="2.5" ry="2.5" style="stroke:#181818;stroke-width:0.5;" width="105" x="7" y="452"/><ellipse cx="22" cy="468" fill="#ADD1B2" rx="11" ry="11" style="stroke:#181818;stroke-width:1.0;"/><path d="M18.3594,474.5 L18.3594,462.3594 L26.0156,462.3594 L26.0156,464.4844 L20.7344,464.4844 L20.7344,467.1406 L25.75,467.1406 L25.75,469.2656 L20.7344,469.2656 L20.7344,472.375 L26.0156,472.375 L26.0156,474.5 L18.3594,474.5 Z " fill="#000000"/><text fill="#000000" font-family="sans-serif" font-size="14" lengthAdjust="spacing" textLength="73" x="36" y="473.432">Preference</text><line style="stroke:#181818;stroke-width:0.5;" x1="8" x2="111" y1="484" y2="484"/><ellipse cx="18" cy="499.034" fill="#000000" rx="3" ry="3" style="stroke:#000000;stroke-width:1.0;"/><text fill="#000000" font-family="sans-serif" font-size="14" lengthAdjust="spacing" textLength="38" x="27" y="502.9659">name</text><line style="stroke:#181818;stroke-width:0.5;" x1="8" x2="111" y1="511.0679" y2="511.0679"/></g><!--MD5=[f341a0d372c7dc71fd4ce945715281c4]
class Bloq--><g id="elem_Bloq"><rect codeLine="13" fill="#F1F1F1" height="200.5433" id="Bloq" rx="2.5" ry="2.5" style="stroke:#181818;stroke-width:0.5;" width="102" x="60.5" y="191"/><ellipse cx="93.5" cy="207" fill="#ADD1B2" rx="11" ry="11" style="stroke:#181818;stroke-width:1.0;"/><path d="M89.8594,213.5 L89.8594,201.3594 L97.5156,201.3594 L97.5156,203.4844 L92.2344,203.4844 L92.2344,206.1406 L97.25,206.1406 L97.25,208.2656 L92.2344,208.2656 L92.2344,211.375 L97.5156,211.375 L97.5156,213.5 L89.8594,213.5 Z " fill="#000000"/><text fill="#000000" font-family="sans-serif" font-size="14" lengthAdjust="spacing" textLength="30" x="111.5" y="212.432">Bloq</text><line style="stroke:#181818;stroke-width:0.5;" x1="61.5" x2="161.5" y1="223" y2="223"/><ellipse cx="71.5" cy="238.034" fill="#000000" rx="3" ry="3" style="stroke:#000000;stroke-width:1.0;"/><text fill="#000000" font-family="sans-serif" font-size="14" lengthAdjust="spacing" textLength="13" x="80.5" y="241.9659">id</text><text fill="#000000" font-family="sans-serif" font-size="14" lengthAdjust="spacing" textLength="38" x="80.5" y="261.0339">name</text><text fill="#000000" font-family="sans-serif" font-size="14" lengthAdjust="spacing" textLength="76" x="80.5" y="280.1018">description</text><text fill="#000000" font-family="sans-serif" font-size="14" lengthAdjust="spacing" textLength="74" x="80.5" y="299.1697">preference</text><text fill="#000000" font-family="sans-serif" font-size="14" lengthAdjust="spacing" textLength="37" x="80.5" y="318.2376">seller</text><text fill="#000000" font-family="sans-serif" font-size="14" lengthAdjust="spacing" textLength="34" x="80.5" y="337.3055">price</text><text fill="#000000" font-family="sans-serif" font-size="14" lengthAdjust="spacing" textLength="58" x="80.5" y="356.3734">discount</text><text fill="#000000" font-family="sans-serif" font-size="14" lengthAdjust="spacing" textLength="27" x="80.5" y="375.4414">rate</text><line style="stroke:#181818;stroke-width:0.5;" x1="61.5" x2="161.5" y1="383.5433" y2="383.5433"/></g><!--MD5=[b43c15308083dd230167e73c88a941d3]
reverse link Client to Preference--><g id="link_Client_Preference"><path codeLine="24" d="M47.91,140.45 C45.66,156.98 43.65,174.57 42.5,191 C36.27,280.12 34.39,303.04 42.5,392 C44.32,412 48.32,434.14 51.98,451.74 " fill="none" id="Client-backto-Preference" style="stroke:#181818;stroke-width:1.0;"/><line style="stroke:#181818;stroke-width:1.0;" x1="47.8566" x2="43.0284" y1="140.8021" y2="132.045"/><line style="stroke:#181818;stroke-width:1.0;" x1="47.8566" x2="54.9116" y1="140.8021" y2="133.715"/><line style="stroke:#181818;stroke-width:1.0;" x1="47.8566" x2="48.97" y1="140.8021" y2="132.88"/><ellipse cx="47.0216" cy="146.7438" fill="none" rx="4" ry="4" style="stroke:#181818;stroke-width:1.0;"/></g><!--MD5=[c554d82721406e9063b61ea423d8d809]
reverse link Bloq to Preference--><g id="link_Bloq_Preference"><path codeLine="25" d="M82.26,400.48 C77.19,419.18 72.29,437.26 68.35,451.83 " fill="none" id="Bloq-backto-Preference" style="stroke:#181818;stroke-width:1.0;"/><line style="stroke:#181818;stroke-width:1.0;" x1="79.134" x2="86.8563" y1="396.7163" y2="398.806"/><line style="stroke:#181818;stroke-width:1.0;" x1="78.3504" x2="86.0726" y1="399.6121" y2="401.7018"/><line style="stroke:#181818;stroke-width:1.0;" x1="81.9503" x2="84.04" y1="401.6222" y2="393.9"/></g><!--MD5=[8010deb75928712686a8fa2c1a2d4650]
link Client to Bloq--><g id="link_Client_Bloq"><path codeLine="26" d="M76.16,140.62 C79.23,153.67 82.51,167.56 85.78,181.43 " fill="none" id="Client-Bloq" style="stroke:#181818;stroke-width:1.0;"/><line style="stroke:#181818;stroke-width:1.0;" x1="76.1591" x2="68.4889" y1="140.6781" y2="134.2618"/><line style="stroke:#181818;stroke-width:1.0;" x1="76.1591" x2="80.1711" y1="140.6781" y2="131.5182"/><line style="stroke:#181818;stroke-width:1.0;" x1="76.1591" x2="74.33" y1="140.6781" y2="132.89"/><ellipse cx="77.531" cy="146.5192" fill="none" rx="4" ry="4" style="stroke:#181818;stroke-width:1.0;"/><line style="stroke:#181818;stroke-width:1.0;" x1="90.5511" x2="82.7662" y1="184.2462" y2="186.0889"/><line style="stroke:#181818;stroke-width:1.0;" x1="89.8601" x2="82.0752" y1="181.3269" y2="183.1695"/><line style="stroke:#181818;stroke-width:1.0;" x1="85.7373" x2="87.58" y1="181.2751" y2="189.06"/></g><!--MD5=[b05e868c27f4829c677fdc765c38e67a]
@startuml

entity Client {
    *id
    homepage
    clientRate
    sellerRate
}

entity Preference {
    *name
}

entity Bloq {
    *id
    name
    description
    preference
    seller
    price
    discount
    rate
}

Client }o- - Preference
Bloq ||- - Preference
Client }o- -|| Bloq

@enduml

PlantUML version 1.2022.13(Sat Nov 19 13:22:17 WET 2022)
(GPL source distribution)
Java Runtime: OpenJDK Runtime Environment
JVM: OpenJDK 64-Bit Server VM
Default Encoding: UTF-8
Language: en
Country: US
--></g></svg>